<?xml version="1.0" encoding="iso-8859-1"?>
<!-- Generator: Adobe Illustrator 19.0.0, SVG Export Plug-In . SVG Version: 6.00 Build 0)  -->
<svg version="1.1" id="Layer_1" xmlns="http://www.w3.org/2000/svg" xmlns:xlink="http://www.w3.org/1999/xlink" x="0px" y="0px"
	 viewBox="0 0 512 512" style="enable-background:new 0 0 512 512;" xml:space="preserve">
<g>
	<g>
		<path d="M404.579,0H107.421C86.795,0,70.014,16.781,70.013,37.409v437.183c0,20.628,16.781,37.409,37.408,37.409h297.16
			c20.626,0,37.407-16.781,37.407-37.408V37.409C441.987,16.781,425.206,0,404.579,0z M421.589,474.592
			c0,9.38-7.631,17.01-17.009,17.01H107.421c-9.379,0-17.009-7.631-17.009-17.01V37.409c0-9.38,7.631-17.01,17.009-17.01
			c0,0,297.159,0,297.159,0c9.379,0,17.009,7.631,17.009,17.01V474.592z"/>
	</g>
</g>
<g>
	<g>
		<path d="M391.65,40.797H120.351c-5.632,0-10.199,4.567-10.199,10.199v81.594c0,5.632,4.567,10.199,10.199,10.199H391.65
			c5.632,0,10.199-4.567,10.199-10.199V50.996C401.849,45.364,397.282,40.797,391.65,40.797z M381.451,122.39h-250.9V61.195h250.9
			V122.39z"/>
	</g>
</g>
<g>
	<g>
		<path d="M268.665,168.287h-25.329c-18.605,0-33.742,15.137-33.742,33.742v24.309c0,18.605,15.137,33.742,33.742,33.742h25.329
			c18.605,0,33.742-15.137,33.742-33.742v-24.309C302.407,183.424,287.27,168.287,268.665,168.287z M282.008,226.338
			c0,7.358-5.986,13.344-13.344,13.344h-25.329c-7.358,0-13.344-5.986-13.344-13.344v-24.309c0-7.358,5.986-13.344,13.344-13.344
			h25.329c7.358,0,13.344,5.986,13.344,13.344V226.338z"/>
	</g>
</g>
<g>
	<g>
		<path d="M368.107,168.287h-23.799c-18.605,0-33.742,15.137-33.742,33.742v24.309c0,18.605,15.137,33.742,33.742,33.742h23.799
			c18.605,0,33.742-15.137,33.742-33.742v-24.309C401.849,183.424,386.712,168.287,368.107,168.287z M381.451,226.338
			c0,7.358-5.986,13.344-13.344,13.344h-23.799c-7.358,0-13.344-5.986-13.344-13.344v-24.309c0-7.358,5.986-13.344,13.344-13.344
			h23.799c7.358,0,13.344,5.986,13.344,13.344V226.338z"/>
	</g>
</g>
<g>
	<g>
		<path d="M167.693,168.287h-23.799c-18.605,0-33.742,15.137-33.742,33.742v24.309c0,18.605,15.137,33.742,33.742,33.742h23.799
			c18.605,0,33.742-15.137,33.742-33.742v-24.309C201.435,183.424,186.298,168.287,167.693,168.287z M181.036,226.338
			c0,7.358-5.986,13.344-13.344,13.344h-23.799c-7.358,0-13.344-5.986-13.344-13.344v-24.309c0-7.358,5.986-13.344,13.344-13.344
			h23.799c7.358,0,13.344,5.986,13.344,13.344V226.338z"/>
	</g>
</g>
<g>
	<g>
		<path d="M268.665,268.239h-25.329c-18.605,0-33.742,15.137-33.742,33.742v24.309c0,18.605,15.137,33.742,33.742,33.742h25.329
			c18.605,0,33.742-15.137,33.742-33.742v-24.309C302.407,283.376,287.27,268.239,268.665,268.239z M282.008,326.29
			c0,7.358-5.986,13.344-13.344,13.344h-25.329c-7.358,0-13.344-5.986-13.344-13.344v-24.309c0-7.358,5.986-13.344,13.344-13.344
			h25.329c7.358,0,13.344,5.986,13.344,13.344V326.29z"/>
	</g>
</g>
<g>
	<g>
		<path d="M368.107,268.239h-23.799c-18.605,0-33.742,15.137-33.742,33.742v24.309c0,18.605,15.137,33.742,33.742,33.742h23.799
			c18.605,0,33.742-15.137,33.742-33.742v-24.309C401.849,283.376,386.712,268.239,368.107,268.239z M381.451,326.29
			c0,7.358-5.986,13.344-13.344,13.344h-23.799c-7.358,0-13.344-5.986-13.344-13.344v-24.309c0-7.358,5.986-13.344,13.344-13.344
			h23.799c7.358,0,13.344,5.986,13.344,13.344V326.29z"/>
	</g>
</g>
<g>
	<g>
		<path d="M167.693,268.239h-23.799c-18.605,0-33.742,15.137-33.742,33.742v24.309c0,18.605,15.137,33.742,33.742,33.742h23.799
			c18.605,0,33.742-15.137,33.742-33.742v-24.309C201.435,283.376,186.298,268.239,167.693,268.239z M181.036,326.29
			c0,7.358-5.986,13.344-13.344,13.344h-23.799c-7.358,0-13.344-5.986-13.344-13.344v-24.309c0-7.358,5.986-13.344,13.344-13.344
			h23.799c7.358,0,13.344,5.986,13.344,13.344V326.29z"/>
	</g>
</g>
<g>
	<g>
		<path d="M268.665,368.191h-25.329c-18.605,0-33.742,15.137-33.742,33.742v24.309c0,18.605,15.137,33.742,33.742,33.742h25.329
			c18.605,0,33.742-15.137,33.742-33.742v-24.309C302.407,383.328,287.27,368.191,268.665,368.191z M282.008,426.242
			c0,7.358-5.986,13.344-13.344,13.344h-25.329c-7.358,0-13.344-5.986-13.344-13.344v-24.309c0-7.358,5.986-13.344,13.344-13.344
			h25.329c7.358,0,13.344,5.986,13.344,13.344V426.242z"/>
	</g>
</g>
<g>
	<g>
		<path d="M368.107,368.191h-23.799c-18.605,0-33.742,15.137-33.742,33.742v24.309c0,18.605,15.137,33.742,33.742,33.742h23.799
			c18.605,0,33.742-15.137,33.742-33.742v-24.309C401.849,383.328,386.712,368.191,368.107,368.191z M381.451,426.242
			c0,7.358-5.986,13.344-13.344,13.344h-23.799c-7.358,0-13.344-5.986-13.344-13.344v-24.309c0-7.358,5.986-13.344,13.344-13.344
			h23.799c7.358,0,13.344,5.986,13.344,13.344V426.242z"/>
	</g>
</g>
<g>
	<g>
		<path d="M167.693,368.191h-23.799c-18.605,0-33.742,15.137-33.742,33.742v24.309c0,18.605,15.137,33.742,33.742,33.742h23.799
			c18.605,0,33.742-15.137,33.742-33.742v-24.309C201.435,383.328,186.298,368.191,167.693,368.191z M181.036,426.242
			c0,7.358-5.986,13.344-13.344,13.344h-23.799c-7.358,0-13.344-5.986-13.344-13.344v-24.309c0-7.358,5.986-13.344,13.344-13.344
			h23.799c7.358,0,13.344,5.986,13.344,13.344V426.242z"/>
	</g>
</g>
<g>
	<g>
		<path d="M359.012,92.813h-63.235c-5.632,0-10.199,4.567-10.199,10.199s4.567,10.199,10.199,10.199h63.235
			c5.632,0,10.199-4.567,10.199-10.199S364.644,92.813,359.012,92.813z"/>
	</g>
</g>
<g>
	<g>
		<path d="M263.14,92.813h-6.12c-5.632,0-10.199,4.567-10.199,10.199s4.567,10.199,10.199,10.199h6.12
			c5.632,0,10.199-4.567,10.199-10.199S268.772,92.813,263.14,92.813z"/>
	</g>
</g>
<g>
</g>
<g>
</g>
<g>
</g>
<g>
</g>
<g>
</g>
<g>
</g>
<g>
</g>
<g>
</g>
<g>
</g>
<g>
</g>
<g>
</g>
<g>
</g>
<g>
</g>
<g>
</g>
<g>
</g>
</svg>
