<?xml version="1.0" encoding="iso-8859-1"?>
<!-- Generator: Adobe Illustrator 19.0.0, SVG Export Plug-In . SVG Version: 6.00 Build 0)  -->
<svg version="1.1" id="Capa_1" xmlns="http://www.w3.org/2000/svg" xmlns:xlink="http://www.w3.org/1999/xlink" x="0px" y="0px"
	 viewBox="0 0 512 512" style="enable-background:new 0 0 512 512;" xml:space="preserve">
<g>
	<g>
		<path d="M441.379,326.917c-3.25-3.412-8.65-3.546-12.062-0.296L264.533,483.556V8.533C264.533,3.821,260.712,0,256,0
			s-8.533,3.821-8.533,8.533v475.023L82.683,326.621c-3.404-3.254-8.808-3.121-12.062,0.296c-3.25,3.412-3.117,8.813,0.296,12.063
			l179.2,170.667c0.368,0.352,0.827,0.517,1.237,0.79c0.474,0.318,0.897,0.697,1.432,0.915c1.031,0.42,2.119,0.649,3.214,0.649
			c1.095,0,2.183-0.229,3.214-0.649c0.535-0.218,0.957-0.597,1.432-0.915c0.41-0.273,0.869-0.439,1.238-0.79l179.2-170.667
			C444.496,335.729,444.629,330.329,441.379,326.917z"/>
	</g>
</g>
<g>
</g>
<g>
</g>
<g>
</g>
<g>
</g>
<g>
</g>
<g>
</g>
<g>
</g>
<g>
</g>
<g>
</g>
<g>
</g>
<g>
</g>
<g>
</g>
<g>
</g>
<g>
</g>
<g>
</g>
</svg>
