<?xml version="1.0" encoding="iso-8859-1"?>
<!-- Generator: Adobe Illustrator 19.0.0, SVG Export Plug-In . SVG Version: 6.00 Build 0)  -->
<svg version="1.1" id="Capa_1" xmlns="http://www.w3.org/2000/svg" xmlns:xlink="http://www.w3.org/1999/xlink" x="0px" y="0px"
	 viewBox="0 0 512.004 512.004" style="enable-background:new 0 0 512.004 512.004;" xml:space="preserve">
<g>
	<g>
		<g>
			<path d="M427.957,110.815c-27.439-58.871-76.717-97.18-138.764-107.9c-62.58-10.818-127.485,8.945-169.451,51.523
				C-24.01,200.239,167.928,422.615,240.189,506.324c3.239,3.754,7.8,5.679,12.406,5.679c3.789,0,7.605-1.304,10.711-3.976
				c6.842-5.91,7.605-16.266,1.695-23.108C160.056,363.345,33.246,188.836,143.071,77.439
				c34.032-34.52,89.176-51.106,140.557-42.232c51.15,8.839,91.865,40.608,114.636,89.451
				c47.849,102.673-46.953,222.651-103.614,294.327c-6.86,8.679-13.205,16.719-18.769,24.013
				c-5.475,7.206-4.091,17.491,3.124,22.966c7.197,5.475,17.473,4.091,22.948-3.124c5.44-7.144,11.678-15.024,18.405-23.534
				C381.696,361.694,484.351,231.795,427.957,110.815z"/>
			<path d="M328.336,191.081c0-39.951-32.506-72.457-72.448-72.457c-39.951,0-72.457,32.506-72.457,72.457
				c0,39.96,32.506,72.466,72.457,72.466C295.83,263.547,328.327,231.041,328.336,191.081z M255.888,230.784
				c-21.892,0-39.703-17.801-39.703-39.694c0-21.884,17.81-39.685,39.703-39.685c21.884,0,39.685,17.801,39.685,39.685
				C295.573,212.982,277.771,230.784,255.888,230.784z"/>
		</g>
	</g>
</g>
<g>
</g>
<g>
</g>
<g>
</g>
<g>
</g>
<g>
</g>
<g>
</g>
<g>
</g>
<g>
</g>
<g>
</g>
<g>
</g>
<g>
</g>
<g>
</g>
<g>
</g>
<g>
</g>
<g>
</g>
</svg>
