<?xml version="1.0" encoding="iso-8859-1"?>
<!-- Generator: Adobe Illustrator 19.0.0, SVG Export Plug-In . SVG Version: 6.00 Build 0)  -->
<svg version="1.1" id="Capa_1" xmlns="http://www.w3.org/2000/svg" xmlns:xlink="http://www.w3.org/1999/xlink" x="0px" y="0px"
	 viewBox="0 0 512.014 512.014" style="enable-background:new 0 0 512.014 512.014;" xml:space="preserve">
<g>
	<g>
		<g>
			<path d="M432.509,456.189c-95.164,54.815-218.002-1.159-297.484-80.991C56.113,295.946,1.095,173.697,56.067,79.214
				c4.718-8.103,1.959-18.496-6.135-23.214c-8.094-4.718-18.496-1.977-23.214,6.135c-64.04,110.063-3.835,248.573,84.237,337.023
				c63.185,63.461,151.975,112.804,237.895,112.804c34.618,0,68.786-8.011,100.608-26.35c8.121-4.672,10.917-15.056,6.236-23.186
				C451.023,454.304,440.676,451.517,432.509,456.189z"/>
			<path d="M493.413,361.679l-34.738-34.701c-12.021-12.021-27.996-18.652-45.011-18.652c-17.015,0-33,6.622-45.02,18.652
				c-26.957,26.985-51.587,42.767-84.43,31.951c-43.365-14.191-116.841-87.659-131.06-131.014
				c-10.742-32.816,5.013-57.473,31.97-84.43c12.021-12.03,18.652-28.024,18.652-45.03c0-17.024-6.622-33.009-18.652-45.02
				l-34.729-34.719c-12.021-12.03-28.006-18.661-45.011-18.661c-0.009,0-0.009,0-0.009,0c-17.015,0.009-32.99,6.64-45.011,18.661
				c-6.622,6.64-6.622,17.392,0.028,24.023c6.631,6.622,17.392,6.604,24.014-0.018c11.184-11.239,30.737-11.23,41.967,0.009
				l34.747,34.756c5.61,5.592,8.701,13.051,8.701,20.988s-3.099,15.415-8.701,21.025c-27.776,27.766-57.455,66.386-40.219,119.003
				c17.622,53.758,98.99,135.116,152.738,152.711c52.599,17.309,91.246-12.416,119.021-40.219
				c11.202-11.202,30.765-11.221,41.995,0.009l34.729,34.692c11.579,11.607,11.588,30.47,0.009,42.059
				c-6.631,6.622-6.631,17.374,0.009,24.005c3.32,3.311,7.652,4.966,12.002,4.966c4.341,0,8.691-1.646,12.021-4.985
				C518.209,426.942,518.218,386.539,493.413,361.679z"/>
		</g>
	</g>
</g>
<g>
</g>
<g>
</g>
<g>
</g>
<g>
</g>
<g>
</g>
<g>
</g>
<g>
</g>
<g>
</g>
<g>
</g>
<g>
</g>
<g>
</g>
<g>
</g>
<g>
</g>
<g>
</g>
<g>
</g>
</svg>
